<mxfile host="app.diagrams.net" modified="2021-07-29T04:04:48.020Z" agent="5.0 (Windows NT 10.0; Win64; x64) AppleWebKit/537.36 (KHTML, like Gecko) Chrome/92.0.4515.107 Safari/537.36" etag="htiyFIDlcIslVRDhjjht" version="14.9.3" type="github">
  <diagram id="C5RBs43oDa-KdzZeNtuy" name="Page-1">
    <mxGraphModel dx="2480" dy="2455" grid="1" gridSize="10" guides="1" tooltips="1" connect="1" arrows="1" fold="1" page="1" pageScale="1" pageWidth="827" pageHeight="1169" math="0" shadow="0">
      <root>
        <mxCell id="WIyWlLk6GJQsqaUBKTNV-0" />
        <mxCell id="WIyWlLk6GJQsqaUBKTNV-1" parent="WIyWlLk6GJQsqaUBKTNV-0" />
        <UserObject label="&lt;div style=&quot;display: flex ; justify-content: center ; text-align: center ; align-items: baseline ; font-size: 0 ; line-height: 1.25 ; margin-top: -2px&quot;&gt;&lt;span&gt;&lt;span style=&quot;font-size: 12px ; color: #000000 ; font-family: &amp;#34;liberation mono&amp;#34;&quot;&gt;&lt;font style=&quot;vertical-align: inherit&quot;&gt;&lt;font style=&quot;vertical-align: inherit&quot;&gt;const &lt;/font&gt;&lt;/font&gt;&lt;/span&gt;&lt;font style=&quot;vertical-align: inherit&quot;&gt;&lt;span style=&quot;font-size: 12px ; color: #000000 ; font-family: &amp;#34;liberation mono&amp;#34;&quot;&gt;&lt;font style=&quot;vertical-align: inherit&quot;&gt;char &lt;/font&gt;&lt;/span&gt;&lt;span style=&quot;font-size: 12px ; color: #c54242 ; font-family: &amp;#34;liberation mono&amp;#34;&quot;&gt;&lt;font style=&quot;vertical-align: inherit&quot;&gt;* formato, ...&lt;/font&gt;&lt;/span&gt;&lt;/font&gt;&lt;span style=&quot;font-size: 12px ; color: #c9d1d9 ; font-family: &amp;#34;liberation mono&amp;#34;&quot;&gt; &lt;/span&gt;&lt;span style=&quot;font-size: 12px ; color: #000000 ; font-family: &amp;#34;liberation mono&amp;#34;&quot;&gt;&lt;font style=&quot;vertical-align: inherit&quot;&gt;&lt;/font&gt;&lt;/span&gt;&lt;span style=&quot;font-size: 12px ; color: #c9d1d9 ; font-family: &amp;#34;liberation mono&amp;#34;&quot;&gt; &lt;/span&gt;&lt;span style=&quot;font-size: 12px ; color: #c54242 ; font-family: &amp;#34;liberation mono&amp;#34;&quot;&gt;&lt;font style=&quot;vertical-align: inherit&quot;&gt;&lt;/font&gt;&lt;/span&gt;&lt;/span&gt;&lt;/div&gt;" lucidchartObjectId="tB_qdGgXDT~_" id="ZsIrpVvUOjPs-SvOrJEQ-40">
          <mxCell style="html=1;overflow=block;blockSpacing=1;whiteSpace=wrap;shape=parallelogram;perimeter=parallelogramPerimeter;anchorPointDirection=0;whiteSpace=wrap;fontSize=13;fontFamily=Liberation Mono;spacing=3.8;strokeColor=#ffeca9;strokeOpacity=100;fillOpacity=100;rounded=1;absoluteArcSize=1;arcSize=12;fillColor=#489bfc;strokeWidth=1.5;" vertex="1" parent="WIyWlLk6GJQsqaUBKTNV-1">
            <mxGeometry x="704.5" y="-299" width="180" height="90" as="geometry" />
          </mxCell>
        </UserObject>
        <UserObject label=" if format is false &#xa;or format at  position 0 is&#xa; equal to % and&#xa;format at position 1 is equal &#xa;to null byte " lucidchartObjectId="NB_qjtwegra6" id="ZsIrpVvUOjPs-SvOrJEQ-41">
          <mxCell style="html=1;overflow=block;blockSpacing=1;whiteSpace=wrap;rhombus;whiteSpace=wrap;fontSize=10.2;fontFamily=Helvetica;fontColor=#333333;spacing=3.8;strokeColor=#c54242;strokeOpacity=100;fillOpacity=100;rounded=1;absoluteArcSize=1;arcSize=12;fillColor=#ffffff;strokeWidth=3;" vertex="1" parent="WIyWlLk6GJQsqaUBKTNV-1">
            <mxGeometry x="716" y="46" width="157" height="150" as="geometry" />
          </mxCell>
        </UserObject>
        <UserObject label="&lt;div style=&quot;display: flex; justify-content: center; text-align: center; align-items: baseline; font-size: 0; line-height: 1.25;margin-top: -2px;&quot;&gt;&lt;span&gt;&lt;span style=&quot;font-size:12px;color:#000000;font-family: Helvetica;&quot;&gt;Declare and Initialize:&#xa;&lt;/span&gt;&lt;/span&gt;&lt;/div&gt;&lt;div style=&quot;display: flex; justify-content: center; text-align: center; align-items: baseline; font-size: 0; line-height: 1.25;margin-top: -2px;&quot;&gt;&lt;span&gt;&lt;span style=&quot;font-size:12px;color:#000000;font-family: Helvetica;&quot;&gt;&lt;span style=&quot;font-size:12px;color:#000000;font-family: Helvetica;&quot;&gt;unsigned int i, conta and initializes to 0, and veclare  &lt;/span&gt;&lt;span style=&quot;font-size:12px;color:#000000;font-family: Liberation Mono;&quot;&gt;va_start&lt;/span&gt;&lt;span style=&quot;font-size:12px;color:#0c7cba;font-family: Liberation Mono;&quot;&gt;(&lt;/span&gt;&lt;span style=&quot;font-size:12px;color:#7ab648;font-family: Liberation Mono;&quot;&gt;listing, format&lt;/span&gt;&lt;span style=&quot;font-size:12px;color:#0c7cba;font-family: Liberation Mono;&quot;&gt;)&lt;/span&gt;&lt;/span&gt;&lt;/span&gt;&lt;/div&gt;" lucidchartObjectId="tC_q.ugc0ykY" id="ZsIrpVvUOjPs-SvOrJEQ-42">
          <mxCell style="html=1;overflow=block;blockSpacing=1;whiteSpace=wrap;;whiteSpace=wrap;fontSize=13;fontFamily=Liberation Mono;spacing=3.8;strokeOpacity=0;fillOpacity=100;rounded=1;absoluteArcSize=1;arcSize=12;fillColor=#c7e8ac;strokeWidth=1.5;" vertex="1" parent="WIyWlLk6GJQsqaUBKTNV-1">
            <mxGeometry x="693" y="-135" width="202" height="121" as="geometry" />
          </mxCell>
        </UserObject>
        <UserObject label=" si format en la poscicion i es igual a %" lucidchartObjectId="KL_qHPi0l8Fo" id="ZsIrpVvUOjPs-SvOrJEQ-43">
          <mxCell style="html=1;overflow=block;blockSpacing=1;whiteSpace=wrap;rhombus;whiteSpace=wrap;fontSize=12;fontFamily=Liberation Mono;fontColor=#000000;align=center;spacing=3.8;strokeColor=#c54242;strokeOpacity=100;fillOpacity=100;rounded=1;absoluteArcSize=1;arcSize=12;fillColor=#ffc2c2;strokeWidth=3;" vertex="1" parent="WIyWlLk6GJQsqaUBKTNV-1">
            <mxGeometry x="279" y="164" width="150" height="105" as="geometry" />
          </mxCell>
        </UserObject>
        <UserObject label="Finish the listing and returns the conta value" lucidchartObjectId="4L_qAYndO_uU" id="ZsIrpVvUOjPs-SvOrJEQ-44">
          <mxCell style="html=1;overflow=block;blockSpacing=1;whiteSpace=wrap;;whiteSpace=wrap;fontSize=12;fontFamily=Helvetica;fontColor=#000000;spacing=3.8;verticalAlign=middle;strokeOpacity=0;fillOpacity=100;rounded=1;absoluteArcSize=1;arcSize=12;fillColor=#ffc2c2;strokeWidth=1.5;" vertex="1" parent="WIyWlLk6GJQsqaUBKTNV-1">
            <mxGeometry x="564" y="171" width="120" height="90" as="geometry" />
          </mxCell>
        </UserObject>
        <UserObject label="" lucidchartObjectId="zO_qtwRH1phF" id="ZsIrpVvUOjPs-SvOrJEQ-45">
          <mxCell style="html=1;jettySize=18;whiteSpace=wrap;fontSize=13;fontFamily=Helvetica;strokeColor=#333333;strokeOpacity=100;strokeWidth=0.8;rounded=1;arcSize=20;edgeStyle=orthogonalEdgeStyle;startArrow=none;;endArrow=block;endFill=1;;exitX=0.522;exitY=1.003;exitPerimeter=0;entryX=0.5;entryY=-0.008;entryPerimeter=0;" edge="1" parent="WIyWlLk6GJQsqaUBKTNV-1" source="ZsIrpVvUOjPs-SvOrJEQ-48" target="ZsIrpVvUOjPs-SvOrJEQ-40">
            <mxGeometry width="100" height="100" relative="1" as="geometry">
              <Array as="points" />
            </mxGeometry>
          </mxCell>
        </UserObject>
        <UserObject label="" lucidchartObjectId="MO_qeyLKl4_R" id="ZsIrpVvUOjPs-SvOrJEQ-46">
          <mxCell style="html=1;jettySize=18;whiteSpace=wrap;fontSize=11.7;fontFamily=Helvetica;fontColor=#333333;fontStyle=1;strokeColor=#333333;strokeOpacity=100;strokeWidth=0.8;rounded=1;arcSize=20;edgeStyle=orthogonalEdgeStyle;startArrow=none;;endArrow=block;endFill=1;;exitX=0.007;exitY=0.5;exitPerimeter=0;entryX=1.003;entryY=0.5;entryPerimeter=0;" edge="1" parent="WIyWlLk6GJQsqaUBKTNV-1" source="ZsIrpVvUOjPs-SvOrJEQ-41" target="ZsIrpVvUOjPs-SvOrJEQ-53">
            <mxGeometry width="100" height="100" relative="1" as="geometry">
              <Array as="points" />
            </mxGeometry>
          </mxCell>
        </UserObject>
        <mxCell id="ZsIrpVvUOjPs-SvOrJEQ-47" value="NO" style="text;html=1;resizable=0;labelBackgroundColor=#ffffff;align=center;verticalAlign=middle;fontStyle=1;fontColor=#333333;;fontSize=11.7;" vertex="1" parent="ZsIrpVvUOjPs-SvOrJEQ-46">
          <mxGeometry x="-0.2731191110864569" relative="1" as="geometry" />
        </mxCell>
        <UserObject label="&lt;div style=&quot;display: flex; justify-content: center; text-align: center; align-items: baseline; font-size: 0; line-height: 1.25;margin-top: -2px;&quot;&gt;&lt;span&gt;&lt;span style=&quot;font-size:12px;color:#000000;font-family: Liberation Mono;&quot;&gt;int&lt;/span&gt;&lt;span style=&quot;font-size:12px;color:#c9d1d9;font-family: Liberation Mono;&quot;&gt; &lt;/span&gt;&lt;span style=&quot;font-size:12px;color:#000000;font-family: Liberation Mono;&quot;&gt;_printf&lt;/span&gt;&lt;span style=&quot;font-size:12px;color:#489bfc;font-family: Liberation Mono;&quot;&gt;(&lt;/span&gt;&lt;span style=&quot;font-size:12px;color:#000000;font-family: Liberation Mono;&quot;&gt;const&lt;/span&gt;&lt;span style=&quot;font-size:12px;color:#c9d1d9;font-family: Liberation Mono;&quot;&gt; &lt;/span&gt;&lt;span style=&quot;font-size:12px;color:#000000;font-family: Liberation Mono;&quot;&gt;char&lt;/span&gt;&lt;span style=&quot;font-size:12px;color:#c9d1d9;font-family: Liberation Mono;&quot;&gt; &lt;/span&gt;&lt;span style=&quot;font-size:12px;color:#c54242;font-family: Liberation Mono;&quot;&gt;*format, ...&lt;/span&gt;&lt;span style=&quot;font-size:12px;color:#489bfc;font-family: Liberation Mono;&quot;&gt;)&lt;/span&gt;&lt;/span&gt;&lt;/div&gt;" lucidchartObjectId="i_aZ1Uuy_ZPy" id="ZsIrpVvUOjPs-SvOrJEQ-48">
          <mxCell style="html=1;overflow=block;blockSpacing=1;whiteSpace=wrap;ellipse;whiteSpace=wrap;fontSize=13;fontFamily=Liberation Mono;spacing=3.8;strokeColor=#489bfc;strokeOpacity=100;fillOpacity=100;rounded=1;absoluteArcSize=1;arcSize=12;fillColor=#ffffff;strokeWidth=0.8;" vertex="1" parent="WIyWlLk6GJQsqaUBKTNV-1">
            <mxGeometry x="730" y="-480" width="128" height="121" as="geometry" />
          </mxCell>
        </UserObject>
        <UserObject label="" lucidchartObjectId="WIbZkRTLIUyJ" id="ZsIrpVvUOjPs-SvOrJEQ-49">
          <mxCell style="html=1;jettySize=18;whiteSpace=wrap;fontSize=13;strokeColor=#333333;strokeOpacity=100;strokeWidth=0.8;rounded=1;arcSize=24;edgeStyle=orthogonalEdgeStyle;startArrow=none;;endArrow=block;endFill=1;;exitX=0.5;exitY=1;exitPerimeter=0;entryX=0.5;entryY=0.006;entryPerimeter=0;" edge="1" parent="WIyWlLk6GJQsqaUBKTNV-1" source="ZsIrpVvUOjPs-SvOrJEQ-42" target="ZsIrpVvUOjPs-SvOrJEQ-41">
            <mxGeometry width="100" height="100" relative="1" as="geometry">
              <Array as="points" />
            </mxGeometry>
          </mxCell>
        </UserObject>
        <UserObject label="" lucidchartObjectId="BJbZPx8ohABN" id="ZsIrpVvUOjPs-SvOrJEQ-50">
          <mxCell style="html=1;jettySize=18;whiteSpace=wrap;fontSize=13;fontColor=#333333;align=center;strokeColor=#333333;strokeOpacity=100;strokeWidth=0.8;rounded=1;arcSize=24;edgeStyle=orthogonalEdgeStyle;startArrow=none;;endArrow=block;endFill=1;;exitX=0.993;exitY=0.5;exitPerimeter=0;entryX=-0.003;entryY=0.524;entryPerimeter=0;" edge="1" parent="WIyWlLk6GJQsqaUBKTNV-1" source="ZsIrpVvUOjPs-SvOrJEQ-41" target="ZsIrpVvUOjPs-SvOrJEQ-52">
            <mxGeometry width="100" height="100" relative="1" as="geometry">
              <Array as="points" />
            </mxGeometry>
          </mxCell>
        </UserObject>
        <mxCell id="ZsIrpVvUOjPs-SvOrJEQ-51" value="YES" style="text;html=1;resizable=0;labelBackgroundColor=#ffffff;align=center;verticalAlign=middle;fontColor=#333333;;fontSize=13;" vertex="1" parent="ZsIrpVvUOjPs-SvOrJEQ-50">
          <mxGeometry relative="1" as="geometry" />
        </mxCell>
        <UserObject label="then return -1" lucidchartObjectId="TKbZXt.E.Pcr" id="ZsIrpVvUOjPs-SvOrJEQ-52">
          <mxCell style="html=1;overflow=block;blockSpacing=1;whiteSpace=wrap;;whiteSpace=wrap;fontSize=13;fontColor=#333333;align=center;spacing=9;strokeColor=#333333;strokeOpacity=100;fillOpacity=100;rounded=1;absoluteArcSize=1;arcSize=12;fillColor=#ffffff;strokeWidth=0.8;" vertex="1" parent="WIyWlLk6GJQsqaUBKTNV-1">
            <mxGeometry x="946" y="74" width="120" height="90" as="geometry" />
          </mxCell>
        </UserObject>
        <UserObject label="then i starts at 0; until format at position i is different from NULL increases i by one by one" lucidchartObjectId="qObZJ~z5I95b" id="ZsIrpVvUOjPs-SvOrJEQ-53">
          <mxCell style="html=1;overflow=block;blockSpacing=1;whiteSpace=wrap;;whiteSpace=wrap;fontSize=13;fontColor=#333333;align=center;spacing=9;strokeColor=#333333;strokeOpacity=100;fillOpacity=100;rounded=1;absoluteArcSize=1;arcSize=12;fillColor=#ffffff;strokeWidth=0.8;" vertex="1" parent="WIyWlLk6GJQsqaUBKTNV-1">
            <mxGeometry x="436" y="31" width="120" height="115" as="geometry" />
          </mxCell>
        </UserObject>
        <UserObject label="" lucidchartObjectId="uQbZUZfrfFrB" id="ZsIrpVvUOjPs-SvOrJEQ-54">
          <mxCell style="html=1;jettySize=18;whiteSpace=wrap;fontSize=13;strokeColor=#333333;strokeOpacity=100;strokeWidth=0.8;rounded=1;arcSize=24;edgeStyle=orthogonalEdgeStyle;startArrow=none;;endArrow=block;endFill=1;;exitX=-0.003;exitY=0.5;exitPerimeter=0;entryX=0.5;entryY=0.006;entryPerimeter=0;" edge="1" parent="WIyWlLk6GJQsqaUBKTNV-1" source="ZsIrpVvUOjPs-SvOrJEQ-53" target="ZsIrpVvUOjPs-SvOrJEQ-43">
            <mxGeometry width="100" height="100" relative="1" as="geometry">
              <Array as="points" />
            </mxGeometry>
          </mxCell>
        </UserObject>
        <UserObject label="&lt;div style=&quot;display: flex; justify-content: center; text-align: center; align-items: baseline; font-size: 0; line-height: 1.25;margin-top: -2px;&quot;&gt;&lt;span&gt;&lt;span style=&quot;font-size:12px;color:#000000;font-family: Liberation Mono;&quot;&gt;format in the &#xa;&lt;/span&gt;&lt;/span&gt;&lt;/div&gt;&lt;div style=&quot;display: flex; justify-content: center; text-align: center; align-items: baseline; font-size: 0; line-height: 1.25;margin-top: -2px;&quot;&gt;&lt;span&gt;&lt;span style=&quot;font-size:12px;color:#000000;font-family: Liberation Mono;&quot;&gt;position of i + 1&#xa;&lt;/span&gt;&lt;/span&gt;&lt;/div&gt;&lt;div style=&quot;display: flex; justify-content: center; text-align: center; align-items: baseline; font-size: 0; line-height: 1.25;margin-top: -2px;&quot;&gt;&lt;span&gt;&lt;span style=&quot;font-size:12px;color:#000000;font-family: Liberation Mono;&quot;&gt;equal to% prints%&#xa;&lt;/span&gt;&lt;/span&gt;&lt;/div&gt;&lt;div style=&quot;display: flex; justify-content: center; text-align: center; align-items: baseline; font-size: 0; line-height: 1.25;margin-top: -2px;&quot;&gt;&lt;span&gt;&lt;span style=&quot;font-size:12px;color:#000000;font-family: Liberation Mono;&quot;&gt;increase count &#xa;&lt;/span&gt;&lt;/span&gt;&lt;/div&gt;&lt;div style=&quot;display: flex; justify-content: center; text-align: center; align-items: baseline; font-size: 0; line-height: 1.25;margin-top: -2px;&quot;&gt;&lt;span&gt;&lt;span style=&quot;font-size:12px;color:#000000;font-family: Liberation Mono;&quot;&gt;by one and i by&#xa;&lt;/span&gt;&lt;/span&gt;&lt;/div&gt;&lt;div style=&quot;display: flex; justify-content: center; text-align: center; align-items: baseline; font-size: 0; line-height: 1.25;margin-top: -2px;&quot;&gt;&lt;span&gt;&lt;span style=&quot;font-size:12px;color:#000000;font-family: Liberation Mono;&quot;&gt; one&lt;/span&gt;&lt;/span&gt;&lt;/div&gt;" lucidchartObjectId="xVbZp4Xpioo2" id="ZsIrpVvUOjPs-SvOrJEQ-55">
          <mxCell style="html=1;overflow=block;blockSpacing=1;whiteSpace=wrap;rhombus;whiteSpace=wrap;fontSize=13;fontFamily=Liberation Mono;spacing=3.8;verticalAlign=middle;strokeColor=#c54242;strokeOpacity=100;fillOpacity=100;rounded=1;absoluteArcSize=1;arcSize=12;fillColor=#0c7cba;strokeWidth=3;" vertex="1" parent="WIyWlLk6GJQsqaUBKTNV-1">
            <mxGeometry x="274" y="366" width="160" height="164" as="geometry" />
          </mxCell>
        </UserObject>
        <UserObject label="" lucidchartObjectId="ZQcZmZQyTfRN" id="ZsIrpVvUOjPs-SvOrJEQ-56">
          <mxCell style="html=1;jettySize=18;whiteSpace=wrap;fontSize=13;fontColor=#333333;align=center;strokeColor=#333333;strokeOpacity=100;strokeWidth=0.8;rounded=1;arcSize=24;edgeStyle=orthogonalEdgeStyle;startArrow=none;;endArrow=block;endFill=1;;exitX=0.99;exitY=0.5;exitPerimeter=0;entryX=0;entryY=0.5;entryPerimeter=0;" edge="1" parent="WIyWlLk6GJQsqaUBKTNV-1" source="ZsIrpVvUOjPs-SvOrJEQ-43" target="ZsIrpVvUOjPs-SvOrJEQ-44">
            <mxGeometry width="100" height="100" relative="1" as="geometry">
              <Array as="points" />
            </mxGeometry>
          </mxCell>
        </UserObject>
        <mxCell id="ZsIrpVvUOjPs-SvOrJEQ-57" value="NO" style="text;html=1;resizable=0;labelBackgroundColor=#ffffff;align=center;verticalAlign=middle;fontColor=#333333;;fontSize=13;" vertex="1" parent="ZsIrpVvUOjPs-SvOrJEQ-56">
          <mxGeometry relative="1" as="geometry" />
        </mxCell>
        <UserObject label="" lucidchartObjectId=".QcZ6O-5JWqK" id="ZsIrpVvUOjPs-SvOrJEQ-58">
          <mxCell style="html=1;jettySize=18;whiteSpace=wrap;fontSize=13;fontColor=#333333;align=center;strokeColor=#333333;strokeOpacity=100;strokeWidth=0.8;rounded=1;arcSize=24;edgeStyle=orthogonalEdgeStyle;startArrow=none;;endArrow=block;endFill=1;;exitX=0.5;exitY=0.994;exitPerimeter=0;entryX=0.5;entryY=0.004;entryPerimeter=0;" edge="1" parent="WIyWlLk6GJQsqaUBKTNV-1" source="ZsIrpVvUOjPs-SvOrJEQ-43" target="ZsIrpVvUOjPs-SvOrJEQ-55">
            <mxGeometry width="100" height="100" relative="1" as="geometry">
              <Array as="points" />
            </mxGeometry>
          </mxCell>
        </UserObject>
        <mxCell id="ZsIrpVvUOjPs-SvOrJEQ-59" value="YES" style="text;html=1;resizable=0;labelBackgroundColor=#ffffff;align=center;verticalAlign=middle;fontColor=#333333;;fontSize=13;" vertex="1" parent="ZsIrpVvUOjPs-SvOrJEQ-58">
          <mxGeometry relative="1" as="geometry" />
        </mxCell>
        <UserObject label="the &#xa;ctype function&#xa; with&#xa; format parameters,&#xa; i + 1,&#xa; is different &#xa;from null" lucidchartObjectId="B2cZNaD~l64G" id="ZsIrpVvUOjPs-SvOrJEQ-60">
          <mxCell style="html=1;overflow=block;blockSpacing=1;whiteSpace=wrap;rhombus;whiteSpace=wrap;fontSize=13;fontFamily=Liberation Mono;fontColor=#000000;spacing=3.8;verticalAlign=middle;strokeColor=#c54242;strokeOpacity=100;fillOpacity=100;rounded=1;absoluteArcSize=1;arcSize=12;fillColor=#0c7cba;strokeWidth=3;" vertex="1" parent="WIyWlLk6GJQsqaUBKTNV-1">
            <mxGeometry x="269" y="610" width="170" height="164" as="geometry" />
          </mxCell>
        </UserObject>
        <UserObject label="" lucidchartObjectId="T_cZQdzaTnS2" id="ZsIrpVvUOjPs-SvOrJEQ-61">
          <mxCell style="html=1;jettySize=18;whiteSpace=wrap;fontSize=13;fontColor=#333333;align=center;strokeColor=#333333;strokeOpacity=100;strokeWidth=0.8;rounded=1;arcSize=24;edgeStyle=orthogonalEdgeStyle;startArrow=none;;endArrow=block;endFill=1;;exitX=0.5;exitY=0.996;exitPerimeter=0;entryX=0.5;entryY=0.004;entryPerimeter=0;" edge="1" parent="WIyWlLk6GJQsqaUBKTNV-1" source="ZsIrpVvUOjPs-SvOrJEQ-55" target="ZsIrpVvUOjPs-SvOrJEQ-60">
            <mxGeometry width="100" height="100" relative="1" as="geometry">
              <Array as="points" />
            </mxGeometry>
          </mxCell>
        </UserObject>
        <mxCell id="ZsIrpVvUOjPs-SvOrJEQ-62" value="ELSE IF" style="text;html=1;resizable=0;labelBackgroundColor=#ffffff;align=center;verticalAlign=middle;fontColor=#333333;;fontSize=13;" vertex="1" parent="ZsIrpVvUOjPs-SvOrJEQ-61">
          <mxGeometry relative="1" as="geometry" />
        </mxCell>
        <UserObject label="" lucidchartObjectId="1mdZUgfAmcg2" id="ZsIrpVvUOjPs-SvOrJEQ-63">
          <mxCell style="html=1;jettySize=18;whiteSpace=wrap;fontSize=13;fontColor=#333333;align=center;strokeColor=#333333;strokeOpacity=100;strokeWidth=0.8;rounded=1;arcSize=24;edgeStyle=orthogonalEdgeStyle;startArrow=none;;endArrow=block;endFill=1;;exitX=0.994;exitY=0.5;exitPerimeter=0;entryX=-0.002;entryY=0.5;entryPerimeter=0;" edge="1" parent="WIyWlLk6GJQsqaUBKTNV-1" source="ZsIrpVvUOjPs-SvOrJEQ-55" target="ZsIrpVvUOjPs-SvOrJEQ-65">
            <mxGeometry width="100" height="100" relative="1" as="geometry">
              <Array as="points" />
            </mxGeometry>
          </mxCell>
        </UserObject>
        <mxCell id="ZsIrpVvUOjPs-SvOrJEQ-64" value="yes" style="text;html=1;resizable=0;labelBackgroundColor=#ffffff;align=center;verticalAlign=middle;fontColor=#333333;;fontSize=13;" vertex="1" parent="ZsIrpVvUOjPs-SvOrJEQ-63">
          <mxGeometry relative="1" as="geometry" />
        </mxCell>
        <mxCell id="ZsIrpVvUOjPs-SvOrJEQ-65" value="&lt;div style=&quot;display: flex; justify-content: center; text-align: center; align-items: baseline; font-size: 0; line-height: 1.25;margin-top: -2px;&quot;&gt;&lt;span&gt;&lt;span style=&quot;font-size:13px;color:#333333;&quot;&gt;print % , increase count one by one&lt;/span&gt;&lt;/span&gt;&lt;/div&gt;" style="rounded=1;arcSize=20;whiteSpace=wrap;overflow=block;blockSpacing=1;html=1;fontSize=13;spacing=0;strokeColor=#333333;strokeOpacity=100;fillOpacity=100;fillColor=#ffffff;strokeWidth=0.8;" vertex="1" parent="WIyWlLk6GJQsqaUBKTNV-1">
          <mxGeometry x="526" y="421" width="178" height="60" as="geometry" />
        </mxCell>
        <mxCell id="ZsIrpVvUOjPs-SvOrJEQ-66" value="&lt;div style=&quot;display: flex; justify-content: center; text-align: center; align-items: baseline; font-size: 0; line-height: 1.25;margin-top: -2px;&quot;&gt;&lt;span&gt;&lt;span style=&quot;font-size:13px;color:#000000;font-family: Liberation Mono;&quot;&gt;call putchar function and send format at position i and increment count by 1 by 1 &lt;/span&gt;&lt;/span&gt;&lt;/div&gt;" style="rounded=1;arcSize=20;whiteSpace=wrap;overflow=block;blockSpacing=1;html=1;fontSize=13;fontFamily=Liberation Mono;spacing=0;strokeColor=#333333;strokeOpacity=100;fillOpacity=100;fillColor=#ffffff;strokeWidth=0.8;" vertex="1" parent="WIyWlLk6GJQsqaUBKTNV-1">
          <mxGeometry x="256.5" y="860" width="195" height="98" as="geometry" />
        </mxCell>
        <UserObject label="&lt;div style=&quot;display: flex; justify-content: center; text-align: center; align-items: baseline; font-size: 0; line-height: 1.25;margin-top: -2px;&quot;&gt;&lt;span&gt;&lt;span style=&quot;font-size:13px;color:#7ab648;font-family: Liberation Mono;&quot;&gt;Ends the listing; returns the value conta.Ends the listing; returns the value conta.&lt;/span&gt;&lt;span style=&quot;font-size:13px;color:#7ab648;&quot;&gt;&#xa;&lt;/span&gt;&lt;/span&gt;&lt;/div&gt;" lucidchartObjectId="OBdZqc9v7BP8" id="ZsIrpVvUOjPs-SvOrJEQ-67">
          <mxCell style="html=1;overflow=block;blockSpacing=1;whiteSpace=wrap;ellipse;whiteSpace=wrap;fontSize=13;spacing=3.8;strokeColor=#333333;strokeOpacity=100;fillOpacity=100;rounded=1;absoluteArcSize=1;arcSize=12;fillColor=#ffffff;strokeWidth=0.8;" vertex="1" parent="WIyWlLk6GJQsqaUBKTNV-1">
            <mxGeometry x="961" y="541" width="105" height="105" as="geometry" />
          </mxCell>
        </UserObject>
        <UserObject label="" lucidchartObjectId="1BdZyvKUz_Wi" id="ZsIrpVvUOjPs-SvOrJEQ-68">
          <mxCell style="html=1;jettySize=18;whiteSpace=wrap;fontSize=13;fontColor=#333333;align=center;strokeColor=#333333;strokeOpacity=100;strokeWidth=0.8;rounded=1;arcSize=24;edgeStyle=orthogonalEdgeStyle;startArrow=none;;endArrow=block;endFill=1;;exitX=0.994;exitY=0.5;exitPerimeter=0;entryX=-0.002;entryY=0.455;entryPerimeter=0;" edge="1" parent="WIyWlLk6GJQsqaUBKTNV-1" source="ZsIrpVvUOjPs-SvOrJEQ-60" target="ZsIrpVvUOjPs-SvOrJEQ-75">
            <mxGeometry width="100" height="100" relative="1" as="geometry">
              <Array as="points" />
            </mxGeometry>
          </mxCell>
        </UserObject>
        <mxCell id="ZsIrpVvUOjPs-SvOrJEQ-69" value="Yes" style="text;html=1;resizable=0;labelBackgroundColor=#ffffff;align=center;verticalAlign=middle;fontColor=#333333;;fontSize=13;" vertex="1" parent="ZsIrpVvUOjPs-SvOrJEQ-68">
          <mxGeometry relative="1" as="geometry" />
        </mxCell>
        <UserObject label="" lucidchartObjectId="5BdZ2SMFaJqF" id="ZsIrpVvUOjPs-SvOrJEQ-70">
          <mxCell style="html=1;jettySize=18;whiteSpace=wrap;fontSize=13;fontColor=#333333;align=center;strokeColor=#333333;strokeOpacity=100;strokeWidth=0.8;rounded=1;arcSize=24;edgeStyle=orthogonalEdgeStyle;startArrow=none;;endArrow=block;endFill=1;;exitX=0.5;exitY=0.996;exitPerimeter=0;entryX=0.5;entryY=-0.004;entryPerimeter=0;" edge="1" parent="WIyWlLk6GJQsqaUBKTNV-1" source="ZsIrpVvUOjPs-SvOrJEQ-60" target="ZsIrpVvUOjPs-SvOrJEQ-66">
            <mxGeometry width="100" height="100" relative="1" as="geometry">
              <Array as="points" />
            </mxGeometry>
          </mxCell>
        </UserObject>
        <mxCell id="ZsIrpVvUOjPs-SvOrJEQ-71" value="No" style="text;html=1;resizable=0;labelBackgroundColor=#ffffff;align=center;verticalAlign=middle;fontColor=#333333;;fontSize=13;" vertex="1" parent="ZsIrpVvUOjPs-SvOrJEQ-70">
          <mxGeometry relative="1" as="geometry" />
        </mxCell>
        <UserObject label="" lucidchartObjectId="XCdZS8ru7Amo" id="ZsIrpVvUOjPs-SvOrJEQ-72">
          <mxCell style="html=1;jettySize=18;whiteSpace=wrap;fontSize=13;strokeColor=#333333;strokeOpacity=100;strokeWidth=0.8;rounded=1;arcSize=24;edgeStyle=orthogonalEdgeStyle;startArrow=none;;endArrow=block;endFill=1;;exitX=1.002;exitY=0.5;exitPerimeter=0;entryX=0.5;entryY=1.004;entryPerimeter=0;" edge="1" parent="WIyWlLk6GJQsqaUBKTNV-1" source="ZsIrpVvUOjPs-SvOrJEQ-66" target="ZsIrpVvUOjPs-SvOrJEQ-67">
            <mxGeometry width="100" height="100" relative="1" as="geometry">
              <Array as="points" />
            </mxGeometry>
          </mxCell>
        </UserObject>
        <UserObject label="" lucidchartObjectId="QEdZhGd2pH~e" id="ZsIrpVvUOjPs-SvOrJEQ-73">
          <mxCell style="html=1;jettySize=18;whiteSpace=wrap;fontSize=13;strokeColor=#333333;strokeOpacity=100;strokeWidth=0.8;rounded=1;arcSize=24;edgeStyle=orthogonalEdgeStyle;startArrow=none;;endArrow=block;endFill=1;;exitX=0.5;exitY=1.004;exitPerimeter=0;" edge="1" parent="WIyWlLk6GJQsqaUBKTNV-1" source="ZsIrpVvUOjPs-SvOrJEQ-67">
            <mxGeometry width="100" height="100" relative="1" as="geometry">
              <Array as="points" />
              <mxPoint x="1014" y="652" as="targetPoint" />
            </mxGeometry>
          </mxCell>
        </UserObject>
        <UserObject label="" lucidchartObjectId="TEdZBORUGi7O" id="ZsIrpVvUOjPs-SvOrJEQ-74">
          <mxCell style="html=1;jettySize=18;whiteSpace=wrap;fontSize=13;strokeColor=#333333;strokeOpacity=100;strokeWidth=0.8;rounded=1;arcSize=24;edgeStyle=orthogonalEdgeStyle;startArrow=none;;endArrow=block;endFill=1;;exitX=0.5;exitY=1.004;exitPerimeter=0;entryX=0.429;entryY=0.001;entryPerimeter=0;" edge="1" parent="WIyWlLk6GJQsqaUBKTNV-1" source="ZsIrpVvUOjPs-SvOrJEQ-52" target="ZsIrpVvUOjPs-SvOrJEQ-67">
            <mxGeometry width="100" height="100" relative="1" as="geometry">
              <Array as="points" />
            </mxGeometry>
          </mxCell>
        </UserObject>
        <UserObject label="Conta accumulates the value of Ctype and i increases one by one&#xa;" lucidchartObjectId=".LdZwrquqhka" id="ZsIrpVvUOjPs-SvOrJEQ-75">
          <mxCell style="html=1;overflow=block;blockSpacing=1;whiteSpace=wrap;;whiteSpace=wrap;fontSize=13;align=center;spacing=3.8;strokeColor=#333333;strokeOpacity=100;fillOpacity=100;rounded=1;absoluteArcSize=1;arcSize=12;fillColor=#ffffff;strokeWidth=0.8;" vertex="1" parent="WIyWlLk6GJQsqaUBKTNV-1">
            <mxGeometry x="556" y="658" width="165" height="90" as="geometry" />
          </mxCell>
        </UserObject>
        <UserObject label="" lucidchartObjectId="zMdZL-46JsUA" id="ZsIrpVvUOjPs-SvOrJEQ-76">
          <mxCell style="html=1;jettySize=18;whiteSpace=wrap;fontSize=13;strokeColor=#333333;strokeOpacity=100;strokeWidth=0.8;rounded=1;arcSize=24;edgeStyle=orthogonalEdgeStyle;startArrow=none;;endArrow=block;endFill=1;;exitX=1;exitY=0.5;exitPerimeter=0;entryX=0.448;entryY=-0.001;entryPerimeter=0;" edge="1" parent="WIyWlLk6GJQsqaUBKTNV-1" source="ZsIrpVvUOjPs-SvOrJEQ-44" target="ZsIrpVvUOjPs-SvOrJEQ-67">
            <mxGeometry width="100" height="100" relative="1" as="geometry">
              <Array as="points" />
            </mxGeometry>
          </mxCell>
        </UserObject>
        <UserObject label="" lucidchartObjectId="IMdZVrF1-niI" id="ZsIrpVvUOjPs-SvOrJEQ-77">
          <mxCell style="html=1;jettySize=18;whiteSpace=wrap;fontSize=13;strokeColor=#333333;strokeOpacity=100;strokeWidth=0.8;rounded=1;arcSize=24;edgeStyle=orthogonalEdgeStyle;startArrow=none;;endArrow=block;endFill=1;;exitX=1.002;exitY=0.5;exitPerimeter=0;entryX=0.5;entryY=-0.004;entryPerimeter=0;" edge="1" parent="WIyWlLk6GJQsqaUBKTNV-1" source="ZsIrpVvUOjPs-SvOrJEQ-65" target="ZsIrpVvUOjPs-SvOrJEQ-67">
            <mxGeometry width="100" height="100" relative="1" as="geometry">
              <Array as="points">
                <mxPoint x="1014" y="451" />
              </Array>
            </mxGeometry>
          </mxCell>
        </UserObject>
        <UserObject label="" lucidchartObjectId="YNdZbu3HV0hA" id="ZsIrpVvUOjPs-SvOrJEQ-78">
          <mxCell style="html=1;jettySize=18;whiteSpace=wrap;fontSize=13;strokeColor=#333333;strokeOpacity=100;strokeWidth=0.8;rounded=1;arcSize=24;edgeStyle=orthogonalEdgeStyle;startArrow=none;;endArrow=block;endFill=1;;exitX=1.002;exitY=0.5;exitPerimeter=0;entryX=0.5;entryY=1.004;entryPerimeter=0;" edge="1" parent="WIyWlLk6GJQsqaUBKTNV-1" source="ZsIrpVvUOjPs-SvOrJEQ-75" target="ZsIrpVvUOjPs-SvOrJEQ-67">
            <mxGeometry width="100" height="100" relative="1" as="geometry">
              <Array as="points" />
            </mxGeometry>
          </mxCell>
        </UserObject>
        <UserObject label="" lucidchartObjectId="_RdZrqNutX.R" id="ZsIrpVvUOjPs-SvOrJEQ-79">
          <mxCell style="html=1;jettySize=18;whiteSpace=wrap;fontSize=13;strokeColor=#333333;strokeOpacity=100;strokeWidth=0.8;rounded=1;arcSize=24;edgeStyle=orthogonalEdgeStyle;startArrow=none;;endArrow=block;endFill=1;;exitX=0.5;exitY=1.008;exitPerimeter=0;entryX=0.507;entryY=0;entryPerimeter=0;" edge="1" parent="WIyWlLk6GJQsqaUBKTNV-1" source="ZsIrpVvUOjPs-SvOrJEQ-40" target="ZsIrpVvUOjPs-SvOrJEQ-42">
            <mxGeometry width="100" height="100" relative="1" as="geometry">
              <Array as="points" />
            </mxGeometry>
          </mxCell>
        </UserObject>
        <UserObject label="" lucidchartObjectId="5SdZzjjQCIWo" id="ZsIrpVvUOjPs-SvOrJEQ-80">
          <mxCell style="html=1;jettySize=18;whiteSpace=wrap;fontSize=13;strokeColor=#333333;strokeOpacity=100;strokeWidth=0.8;rounded=1;arcSize=24;edgeStyle=orthogonalEdgeStyle;startArrow=none;;endArrow=block;endFill=1;;exitY=0.5;exitPerimeter=0;entryY=0.5;entryPerimeter=0;" edge="1" parent="WIyWlLk6GJQsqaUBKTNV-1" source="ZsIrpVvUOjPs-SvOrJEQ-48" target="ZsIrpVvUOjPs-SvOrJEQ-48">
            <mxGeometry width="100" height="100" relative="1" as="geometry">
              <Array as="points">
                <mxPoint x="877" y="-413" generated="1" />
                <mxPoint x="877" y="-413" generated="1" />
              </Array>
            </mxGeometry>
          </mxCell>
        </UserObject>
      </root>
    </mxGraphModel>
  </diagram>
</mxfile>
